<svg width="26" height="51" viewBox="0 0 26 51" fill="none" xmlns="http://www.w3.org/2000/svg">
<rect width="4" height="13" transform="matrix(-1 0 0 1 20 31)" fill="#3E4043"/>
<rect width="4" height="13" transform="matrix(-1 0 0 1 8 31)" fill="#3E4043"/>
<rect width="4" height="15" transform="matrix(-1 0 0 1 14 29)" fill="white"/>
<rect width="2" height="8" transform="matrix(-1 0 0 1 22 31)" fill="#3E4043"/>
<rect width="2" height="6" transform="matrix(-1 0 0 1 2 33)" fill="#3E4043"/>
<rect width="2" height="6" transform="matrix(-1 0 0 1 24 33)" fill="#3E4043"/>
<rect width="2" height="8" transform="matrix(-1 0 0 1 26 31)" fill="#1D1D1E"/>
<rect width="2" height="2" transform="matrix(-1 0 0 1 24 31)" fill="#1D1D1E"/>
<rect width="2" height="2" transform="matrix(-1 0 0 1 22 29)" fill="#1D1D1E"/>
<rect width="2" height="2" transform="matrix(-1 0 0 1 8 29)" fill="#1D1D1E"/>
<rect width="2" height="2" transform="matrix(-1 0 0 1 6 29)" fill="#1D1D1E"/>
<rect width="2" height="16" transform="matrix(-1 0 0 1 16 28)" fill="#1D1D1E"/>
<rect width="2" height="16" transform="matrix(-1 0 0 1 10 28)" fill="#1D1D1E"/>
<rect width="2" height="9" transform="matrix(-1 0 0 1 4 30)" fill="#1D1D1E"/>
<rect width="2" height="9" transform="matrix(-1 0 0 1 21 35)" fill="#1D1D1E"/>
<rect width="4" height="2" transform="matrix(-1 0 0 1 20 29)" fill="#1D1D1E"/>
<rect width="5" height="5" transform="matrix(-1 0 0 1 26 39)" fill="#EAB293"/>
<rect width="19" height="2" transform="matrix(-1 0 0 1 23 44)" fill="#000901"/>
<rect width="8" height="3" transform="matrix(-1 0 0 1 23 46)" fill="#6A7C9F"/>
<rect width="8" height="2" transform="matrix(-1 0 0 1 23 49)" fill="#010101"/>
<rect width="8" height="3" transform="matrix(-1 0 0 1 12 46)" fill="#6A7C9F"/>
<rect width="8" height="2" transform="matrix(-1 0 0 1 12 49)" fill="#010101"/>
<rect width="4" height="5" transform="matrix(-1 0 0 1 4 39)" fill="#EAB293"/>
<rect x="4" y="6" width="16" height="20" fill="#EAB293"/>
<rect x="8" y="26" width="8" height="4" fill="#EAB293"/>
<rect x="2" y="7" width="2" height="17" fill="#F5C6B3"/>
<rect x="20" y="12" width="2" height="12" fill="#EAB293"/>
<rect x="22" y="13" width="2" height="9" fill="#C99585"/>
<rect y="13" width="10" height="2" fill="#262B44"/>
<rect x="12" y="13" width="12" height="2" fill="#262B44"/>
<rect y="15" width="2" height="2" fill="#262B44"/>
<rect x="20" y="15" width="2" height="2" fill="#262B44"/>
<rect x="8" y="15" width="2" height="2" fill="#262B44"/>
<rect x="12" y="15" width="2" height="2" fill="#262B44"/>
<rect x="2" y="17" width="6" height="2" fill="#262B44"/>
<rect x="14" y="17" width="6" height="2" fill="#262B44"/>
<rect x="4" width="2" height="2" fill="#5F595B"/>
<rect x="18" width="2" height="2" fill="#5F595B"/>
<rect x="20" y="2" width="2" height="2" fill="#5F595B"/>
<rect x="22" y="4" width="2" height="2" fill="#5F595B"/>
<rect x="24" y="6" width="2" height="2" fill="#5F595B"/>
<rect x="2" y="2" width="2" height="2" fill="#5F595B"/>
<rect y="4" width="2" height="6" fill="#5F595B"/>
<rect x="4" y="6" width="2" height="4" fill="#5F595B"/>
<rect x="2" y="4" width="2" height="4" fill="black"/>
<rect x="4" y="2" width="2" height="4" fill="black"/>
<rect x="6" width="2" height="10" fill="black"/>
<rect x="10" width="2" height="8" fill="black"/>
<rect x="12" width="2" height="6" fill="black"/>
<rect x="14" width="2" height="6" fill="black"/>
<rect x="16" width="2" height="6" fill="black"/>
<rect x="18" y="2" width="2" height="6" fill="black"/>
<rect x="22" y="6" width="2" height="7" fill="black"/>
<rect x="24" y="8" width="2" height="10" fill="black"/>
<rect x="20" y="4" width="2" height="8" fill="black"/>
<rect x="8" width="2" height="10" fill="black"/>
<rect x="6" width="12" height="2" fill="#5F595B"/>
<rect x="6" y="23" width="12" height="2" fill="black"/>
<rect x="2" y="23" width="2" height="2" fill="black"/>
<rect x="6" y="27" width="2" height="2" fill="black"/>
<rect x="4" y="25" width="4" height="2" fill="black"/>
<rect x="2" y="25" width="2" height="2" fill="#555055"/>
<rect x="4" y="27" width="2" height="2" fill="#555055"/>
<rect x="6" y="29" width="2" height="2" fill="#555055"/>
<rect x="8" y="31" width="2" height="2" fill="#555055"/>
<rect x="10" y="29" width="2" height="8" fill="#838383"/>
<rect x="12" y="29" width="2" height="8" fill="#555055"/>
<rect x="4" y="29" width="2" height="2" fill="#262627"/>
<rect x="6" y="31" width="2" height="2" fill="#262627"/>
<rect x="8" y="33" width="2" height="2" fill="#262627"/>
<rect x="4" y="31" width="2" height="2" fill="black"/>
<rect x="6" y="33" width="2" height="2" fill="black"/>
<rect x="8" y="35" width="2" height="2" fill="black"/>
<rect x="10" y="37" width="4" height="2" fill="black"/>
<rect x="14" y="35" width="2" height="2" fill="black"/>
<rect x="18" y="31" width="2" height="2" fill="black"/>
<rect x="18" y="29" width="2" height="2" fill="#262627"/>
<rect x="16" y="31" width="2" height="2" fill="#262627"/>
<rect x="14" y="33" width="2" height="2" fill="#262627"/>
<rect x="8" y="29" width="2" height="2" fill="black"/>
<rect x="10" y="27" width="2" height="2" fill="black"/>
<rect x="12" y="27" width="2" height="2" fill="black"/>
<rect x="14" y="29" width="2" height="2" fill="black"/>
<rect x="16" y="27" width="2" height="2" fill="black"/>
<rect x="16" y="25" width="2" height="2" fill="black"/>
<rect x="18" y="25" width="2" height="2" fill="black"/>
<rect x="14" y="31" width="2" height="2" fill="#555055"/>
<rect x="16" y="29" width="2" height="2" fill="#555055"/>
<rect x="18" y="27" width="2" height="2" fill="#555055"/>
<rect x="20" y="25" width="2" height="2" fill="#555055"/>
<rect x="20" y="23" width="2" height="2" fill="black"/>
<rect x="16" y="33" width="2" height="2" fill="black"/>
</svg>
