<svg width="28" height="35" viewBox="0 0 28 35" fill="none" xmlns="http://www.w3.org/2000/svg">
<rect x="4" y="10" width="16" height="19" fill="#F7A26E"/>
<rect x="8" y="29" width="8" height="4" fill="#F7A26E"/>
<rect x="2" y="10" width="2" height="17" fill="#F2AF8F"/>
<rect x="20" y="18" width="2" height="9" fill="#F7A26E"/>
<rect x="22" y="18" width="2" height="9" fill="#D98E69"/>
<path fill-rule="evenodd" clip-rule="evenodd" d="M2 27H4V29H2V27ZM18 29V27H8H6V29H4V31H6V33H8V35H10H12H14H16V33H18V31H20V29H22V27H20V29H18ZM16 29V33H14V31H12H10V33H8V29H16Z" fill="#262627"/>
<rect x="6" y="4" width="10" height="1" fill="#262627"/>
<rect x="10" y="10" width="2" height="1" fill="#262627"/>
<rect x="18" y="10" width="6" height="1" fill="#262627"/>
<rect x="18" y="11" width="6" height="1" fill="#262627"/>
<rect x="20" y="12" width="4" height="1" fill="#262627"/>
<rect x="20" y="13" width="4" height="1" fill="#262627"/>
<rect x="20" y="14" width="4" height="1" fill="#262627"/>
<rect x="20" y="15" width="4" height="1" fill="#262627"/>
<rect x="10" y="11" width="2" height="1" fill="#262627"/>
<rect x="22" y="2" width="2" height="4" fill="#262627"/>
<rect x="24" width="2" height="2" fill="#262627"/>
<rect x="6" y="5" width="10" height="1" fill="#262627"/>
<rect x="4" y="6" width="16" height="1" fill="#262627"/>
<rect x="4" y="7" width="16" height="1" fill="#262627"/>
<rect x="2" y="8" width="20" height="1" fill="#262627"/>
<rect x="2" y="9" width="20" height="1" fill="#262627"/>
<rect x="4" y="4" width="2" height="2" fill="#5F595B"/>
<rect x="20" y="2" width="2" height="2" fill="#5F595B"/>
<rect x="22" width="2" height="2" fill="#5F595B"/>
<rect x="2" y="6" width="2" height="2" fill="#5F595B"/>
<rect y="8" width="2" height="2" fill="#5F595B"/>
<rect y="10" width="2" height="2" fill="#5F595B"/>
<rect x="16" y="4" width="6" height="2" fill="black"/>
<rect x="20" y="6" width="8" height="2" fill="black"/>
<rect x="24" y="4" width="4" height="2" fill="black"/>
<rect x="22" y="8" width="6" height="2" fill="black"/>
<rect x="24" y="10" width="2" height="10" fill="black"/>
<rect x="24" y="2" width="4" height="2" fill="black"/>
<rect x="12" y="16" width="12" height="2" fill="#770000"/>
<rect y="16" width="10" height="2" fill="#770000"/>
<rect x="12" y="18" width="2" height="2" fill="#770000"/>
<rect x="8" y="18" width="2" height="2" fill="#770000"/>
<rect x="20" y="18" width="2" height="2" fill="#770000"/>
<rect y="18" width="2" height="2" fill="#770000"/>
<rect x="14" y="20" width="6" height="2" fill="#770000"/>
<rect x="2" y="20" width="6" height="2" fill="#770000"/>
</svg>
