<svg width="26" height="12" viewBox="0 0 26 12" fill="none" xmlns="http://www.w3.org/2000/svg">
<rect y="5" width="1" height="2" fill="#C8C8C8"/>
<rect width="1" height="2" transform="matrix(-1 0 0 1 26 5)" fill="#C8C8C8"/>
<rect width="2" height="1" transform="matrix(1 0 0 -1 1 6)" fill="white"/>
<rect width="1" height="1" transform="matrix(1 0 0 -1 8 12)" fill="white"/>
<rect width="3" height="1" transform="matrix(1 0 0 -1 3 7)" fill="white"/>
<rect width="3" height="1" transform="matrix(1 0 0 -1 7 7)" fill="white"/>
<rect width="4" height="1" transform="matrix(1 0 0 -1 11 7)" fill="white"/>
<rect width="3" height="1" transform="matrix(1 0 0 -1 4 8)" fill="white"/>
<rect width="2" height="1" transform="matrix(1 0 0 -1 8 8)" fill="white"/>
<rect width="2" height="1" transform="matrix(1 0 0 -1 5 9)" fill="white"/>
<rect width="2" height="1" transform="matrix(1 0 0 -1 8 9)" fill="white"/>
<rect width="1" height="1" transform="matrix(1 0 0 -1 7 6)" fill="white"/>
<rect width="1" height="1" transform="matrix(1 0 0 -1 11 6)" fill="white"/>
<rect width="1" height="1" transform="matrix(1 0 0 -1 14 6)" fill="white"/>
<rect width="3" height="1" transform="matrix(1 0 0 -1 18 10)" fill="white"/>
<rect width="3" height="1" transform="matrix(1 0 0 -1 19 9)" fill="white"/>
<rect width="4" height="1" transform="matrix(1 0 0 -1 19 8)" fill="white"/>
<rect width="4" height="1" transform="matrix(1 0 0 -1 20 7)" fill="white"/>
<rect width="5" height="1" transform="matrix(1 0 0 -1 20 6)" fill="white"/>
<rect width="1" height="1" transform="matrix(1 0 0 -1 19 11)" fill="white"/>
<rect width="1" height="5" transform="matrix(1 0 0 -1 15 12)" fill="white"/>
<rect width="1" height="2" transform="matrix(1 0 0 -1 18 7)" fill="white"/>
<rect width="1" height="1" transform="matrix(1 0 0 -1 16 10)" fill="white"/>
<rect width="2" height="3" transform="matrix(1 0 0 -1 16 9)" fill="white"/>
<rect width="2" height="1" transform="matrix(1 0 0 -1 6 10)" fill="white"/>
<rect width="1" height="5" transform="matrix(1 0 0 -1 10 12)" fill="white"/>
<rect width="2" height="5" transform="matrix(1 0 0 -1 12 12)" fill="white"/>
<rect width="2" height="2" transform="matrix(1 0 0 -1 17 12)" fill="white"/>
<rect width="1" height="1" transform="matrix(1 0 0 -1 9 10)" fill="white"/>
<rect width="2" height="1" transform="matrix(1 0 0 -1 7 11)" fill="white"/>
<rect x="2" y="6" width="1" height="2" fill="#C8C8C8"/>
<rect x="1" y="6" width="1" height="1" fill="#C8C8C8"/>
<rect width="1" height="2" transform="matrix(-1 0 0 1 25 6)" fill="#C8C8C8"/>
<rect x="3" y="7" width="1" height="2" fill="#C8C8C8"/>
<rect width="1" height="2" transform="matrix(-1 0 0 1 24 7)" fill="#C8C8C8"/>
<rect x="6" y="5" width="1" height="2" fill="#C8C8C8"/>
<rect x="10" y="5" width="1" height="2" fill="#C8C8C8"/>
<rect x="15" y="5" width="1" height="2" fill="#C8C8C8"/>
<rect x="16" y="10" width="1" height="2" fill="#C8C8C8"/>
<rect x="17" y="9" width="1" height="1" fill="#C8C8C8"/>
<rect x="18" y="7" width="1" height="2" fill="#C8C8C8"/>
<rect x="19" y="5" width="1" height="2" fill="#C8C8C8"/>
<rect x="11" y="7" width="1" height="5" fill="#C8C8C8"/>
<rect x="14" y="7" width="1" height="5" fill="#C8C8C8"/>
<rect x="7" y="7" width="1" height="1" fill="#C8C8C8"/>
<rect x="7" y="8" width="1" height="1" fill="#C8C8C8"/>
<rect x="8" y="9" width="1" height="1" fill="#C8C8C8"/>
<rect x="9" y="10" width="1" height="2" fill="#C8C8C8"/>
<rect x="4" y="8" width="1" height="2" fill="#C8C8C8"/>
<rect width="1" height="2" transform="matrix(-1 0 0 1 23 8)" fill="#C8C8C8"/>
<rect x="5" y="9" width="1" height="2" fill="#C8C8C8"/>
<rect width="1" height="2" transform="matrix(-1 0 0 1 22 9)" fill="#C8C8C8"/>
<rect x="6" y="10" width="1" height="2" fill="#C8C8C8"/>
<rect width="1" height="2" transform="matrix(-1 0 0 1 21 10)" fill="#C8C8C8"/>
<rect x="7" y="11" width="1" height="1" fill="#C8C8C8"/>
<rect width="1" height="1" transform="matrix(-1 0 0 1 20 11)" fill="#C8C8C8"/>
<rect x="1" y="3" width="1" height="2" fill="#F8C484"/>
<rect x="3" y="5" width="3" height="1" fill="#F8C484"/>
<rect x="8" y="5" width="2" height="1" fill="#F8C484"/>
<rect x="12" y="5" width="2" height="1" fill="#F8C484"/>
<rect x="16" y="5" width="2" height="1" fill="#F8C484"/>
<rect x="20" y="5" width="3" height="1" fill="#F8C484"/>
<rect x="23" y="3" width="1" height="1" fill="#F8C484"/>
<rect x="24" y="3" width="1" height="2" fill="#FBB45D"/>
<rect x="2" y="3" width="1" height="2" fill="#FBB45D"/>
<rect x="3" y="4" width="21" height="1" fill="#F8C484"/>
<rect x="5" width="16" height="1" fill="#E5FFDD"/>
<rect x="20" width="1" height="1" fill="#C8EBBD"/>
<rect x="21" y="1" width="1" height="1" fill="#D5F5A0"/>
<rect x="4" y="1" width="18" height="1" fill="#E5FFDD"/>
<rect x="4" y="1" width="1" height="1" fill="#F3FFEF"/>
<rect x="5" width="1" height="1" fill="#F3FFEF"/>
<rect x="21" y="1" width="1" height="1" fill="#C8EBBD"/>
<rect x="3" y="2" width="20" height="1" fill="#E5FFDD"/>
<rect x="3" y="3" width="20" height="1" fill="#E5FFDD"/>
<rect x="3" y="2" width="1" height="2" fill="#F3FFEF"/>
<rect x="22" y="2" width="1" height="2" fill="#C8EBBD"/>
<rect x="7" width="1" height="1" fill="#62CB00"/>
<rect x="10" y="1" width="1" height="1" fill="#62CB00"/>
<rect x="14" width="1" height="1" fill="#62CB00"/>
<rect x="12" y="3" width="1" height="1" fill="#62CB00"/>
<rect x="16" y="2" width="1" height="1" fill="#62CB00"/>
<rect x="17" y="3" width="1" height="1" fill="#62CB00"/>
<rect x="19" y="1" width="1" height="1" fill="#62CB00"/>
<rect x="21" y="3" width="1" height="1" fill="#62CB00"/>
<rect x="4" y="2" width="1" height="1" fill="#62CB00"/>
<rect x="9" y="2" width="1" height="1" fill="#62CB00"/>
</svg>
