<svg width="52" height="24" viewBox="0 0 52 24" fill="none" xmlns="http://www.w3.org/2000/svg">
<rect y="10" width="2" height="4" fill="#C8C8C8"/>
<rect width="2" height="4" transform="matrix(-1 0 0 1 52 10)" fill="#C8C8C8"/>
<rect width="4" height="2" transform="matrix(1 0 0 -1 2 12)" fill="white"/>
<rect width="2" height="2" transform="matrix(1 0 0 -1 16 24)" fill="white"/>
<rect width="6" height="2" transform="matrix(1 0 0 -1 6 14)" fill="white"/>
<rect width="6" height="2" transform="matrix(1 0 0 -1 14 14)" fill="white"/>
<rect width="8" height="2" transform="matrix(1 0 0 -1 22 14)" fill="white"/>
<rect width="6" height="2" transform="matrix(1 0 0 -1 8 16)" fill="white"/>
<rect width="4" height="2" transform="matrix(1 0 0 -1 16 16)" fill="white"/>
<rect width="4" height="2" transform="matrix(1 0 0 -1 10 18)" fill="white"/>
<rect width="4" height="2" transform="matrix(1 0 0 -1 16 18)" fill="white"/>
<rect width="2" height="2" transform="matrix(1 0 0 -1 14 12)" fill="white"/>
<rect width="2" height="2" transform="matrix(1 0 0 -1 22 12)" fill="white"/>
<rect width="2" height="2" transform="matrix(1 0 0 -1 28 12)" fill="white"/>
<rect width="6" height="2" transform="matrix(1 0 0 -1 36 20)" fill="white"/>
<rect width="6" height="2" transform="matrix(1 0 0 -1 38 18)" fill="white"/>
<rect width="8" height="2" transform="matrix(1 0 0 -1 38 16)" fill="white"/>
<rect width="8" height="2" transform="matrix(1 0 0 -1 40 14)" fill="white"/>
<rect width="10" height="2" transform="matrix(1 0 0 -1 40 12)" fill="white"/>
<rect width="2" height="2" transform="matrix(1 0 0 -1 38 22)" fill="white"/>
<rect width="2" height="10" transform="matrix(1 0 0 -1 30 24)" fill="white"/>
<rect width="2" height="4" transform="matrix(1 0 0 -1 36 14)" fill="white"/>
<rect width="2" height="2" transform="matrix(1 0 0 -1 32 20)" fill="white"/>
<rect width="4" height="6" transform="matrix(1 0 0 -1 32 18)" fill="white"/>
<rect width="4" height="2" transform="matrix(1 0 0 -1 12 20)" fill="white"/>
<rect width="2" height="10" transform="matrix(1 0 0 -1 20 24)" fill="white"/>
<rect width="4" height="10" transform="matrix(1 0 0 -1 24 24)" fill="white"/>
<rect width="4" height="4" transform="matrix(1 0 0 -1 34 24)" fill="white"/>
<rect width="2" height="2" transform="matrix(1 0 0 -1 18 20)" fill="white"/>
<rect width="4" height="2" transform="matrix(1 0 0 -1 14 22)" fill="white"/>
<rect x="4" y="12" width="2" height="4" fill="#C8C8C8"/>
<rect x="2" y="12" width="2" height="2" fill="#C8C8C8"/>
<rect width="2" height="4" transform="matrix(-1 0 0 1 50 12)" fill="#C8C8C8"/>
<rect x="6" y="14" width="2" height="4" fill="#C8C8C8"/>
<rect width="2" height="4" transform="matrix(-1 0 0 1 48 14)" fill="#C8C8C8"/>
<rect x="12" y="10" width="2" height="4" fill="#C8C8C8"/>
<rect x="20" y="10" width="2" height="4" fill="#C8C8C8"/>
<rect x="30" y="10" width="2" height="4" fill="#C8C8C8"/>
<rect x="32" y="20" width="2" height="4" fill="#C8C8C8"/>
<rect x="34" y="18" width="2" height="2" fill="#C8C8C8"/>
<rect x="36" y="14" width="2" height="4" fill="#C8C8C8"/>
<rect x="38" y="10" width="2" height="4" fill="#C8C8C8"/>
<rect x="22" y="14" width="2" height="10" fill="#C8C8C8"/>
<rect x="28" y="14" width="2" height="10" fill="#C8C8C8"/>
<rect x="14" y="14" width="2" height="2" fill="#C8C8C8"/>
<rect x="14" y="16" width="2" height="2" fill="#C8C8C8"/>
<rect x="16" y="18" width="2" height="2" fill="#C8C8C8"/>
<rect x="18" y="20" width="2" height="4" fill="#C8C8C8"/>
<rect x="8" y="16" width="2" height="4" fill="#C8C8C8"/>
<rect width="2" height="4" transform="matrix(-1 0 0 1 46 16)" fill="#C8C8C8"/>
<rect x="10" y="18" width="2" height="4" fill="#C8C8C8"/>
<rect width="2" height="4" transform="matrix(-1 0 0 1 44 18)" fill="#C8C8C8"/>
<rect x="12" y="20" width="2" height="4" fill="#C8C8C8"/>
<rect width="2" height="4" transform="matrix(-1 0 0 1 42 20)" fill="#C8C8C8"/>
<rect x="14" y="22" width="2" height="2" fill="#C8C8C8"/>
<rect width="2" height="2" transform="matrix(-1 0 0 1 40 22)" fill="#C8C8C8"/>
<rect x="2" y="6" width="2" height="4" fill="#F8C484"/>
<rect x="6" y="10" width="6" height="2" fill="#F8C484"/>
<rect x="16" y="10" width="4" height="2" fill="#F8C484"/>
<rect x="24" y="10" width="4" height="2" fill="#F8C484"/>
<rect x="32" y="10" width="4" height="2" fill="#F8C484"/>
<rect x="40" y="10" width="6" height="2" fill="#F8C484"/>
<rect x="46" y="6" width="2" height="2" fill="#F8C484"/>
<rect x="48" y="6" width="2" height="4" fill="#FBB45D"/>
<rect x="4" y="6" width="2" height="4" fill="#FBB45D"/>
<rect x="6" y="8" width="42" height="2" fill="#F8C484"/>
<rect x="10" width="32" height="2" fill="#E5FFDD"/>
<rect x="40" width="2" height="2" fill="#C8EBBD"/>
<rect x="42" y="2" width="2" height="2" fill="#D5F5A0"/>
<rect x="8" y="2" width="36" height="2" fill="#E5FFDD"/>
<rect x="8" y="2" width="2" height="2" fill="#F3FFEF"/>
<rect x="10" width="2" height="2" fill="#F3FFEF"/>
<rect x="42" y="2" width="2" height="2" fill="#C8EBBD"/>
<rect x="6" y="4" width="40" height="2" fill="#E5FFDD"/>
<rect x="6" y="6" width="40" height="2" fill="#E5FFDD"/>
<rect x="6" y="4" width="2" height="4" fill="#F3FFEF"/>
<rect x="44" y="4" width="2" height="4" fill="#C8EBBD"/>
<rect x="14" width="2" height="2" fill="#62CB00"/>
<rect x="20" y="2" width="2" height="2" fill="#62CB00"/>
<rect x="28" width="2" height="2" fill="#62CB00"/>
<rect x="24" y="6" width="2" height="2" fill="#62CB00"/>
<rect x="32" y="4" width="2" height="2" fill="#62CB00"/>
<rect x="34" y="6" width="2" height="2" fill="#62CB00"/>
<rect x="38" y="2" width="2" height="2" fill="#62CB00"/>
<rect x="42" y="6" width="2" height="2" fill="#62CB00"/>
<rect x="8" y="4" width="2" height="2" fill="#62CB00"/>
<rect x="18" y="4" width="2" height="2" fill="#62CB00"/>
</svg>
