<svg width="55" height="84" viewBox="0 0 55 84" fill="none" xmlns="http://www.w3.org/2000/svg">
<rect width="5.78947" height="17.9016" transform="matrix(-1 0 0 1 30.3945 45.4426)" fill="#888C96"/>
<rect width="5.78947" height="17.9016" transform="matrix(-1 0 0 1 13.0264 45.4426)" fill="#888C96"/>
<rect width="5.78947" height="20.6557" transform="matrix(-1 0 0 1 21.7104 42.6885)" fill="white"/>
<rect width="2.89474" height="11.0164" transform="matrix(-1 0 0 1 33.2893 45.4426)" fill="#888C96"/>
<rect width="2.89474" height="8.2623" transform="matrix(-1 0 0 1 4.34204 48.197)" fill="#888C96"/>
<rect width="2.89474" height="8.2623" transform="matrix(-1 0 0 1 36.1838 48.197)" fill="#888C96"/>
<rect width="2.89474" height="11.0164" transform="matrix(-1 0 0 1 39.0793 45.4426)" fill="#5C5E69"/>
<rect width="2.89474" height="2.7541" transform="matrix(-1 0 0 1 36.1838 45.4426)" fill="#5C5E69"/>
<rect width="2.89474" height="2.7541" transform="matrix(-1 0 0 1 33.2893 42.6885)" fill="#5C5E69"/>
<rect width="2.89474" height="2.7541" transform="matrix(-1 0 0 1 13.0264 42.6885)" fill="#5C5E69"/>
<rect width="2.89474" height="2.7541" transform="matrix(-1 0 0 1 10.1316 42.6885)" fill="#5C5E69"/>
<rect width="2.89474" height="22.0328" transform="matrix(-1 0 0 1 24.6055 41.3115)" fill="#5C5E69"/>
<rect width="2.89474" height="22.0328" transform="matrix(-1 0 0 1 15.9211 41.3115)" fill="#5C5E69"/>
<rect width="2.89474" height="12.3934" transform="matrix(-1 0 0 1 7.23682 44.0654)" fill="#5C5E69"/>
<rect width="2.89474" height="12.3934" transform="matrix(-1 0 0 1 31.8425 50.9509)" fill="#5C5E69"/>
<rect width="5.78947" height="2.7541" transform="matrix(-1 0 0 1 30.3945 42.6885)" fill="#5C5E69"/>
<rect width="7.23684" height="6.88525" transform="matrix(-1 0 0 1 39.0793 56.459)" fill="#EAB293"/>
<rect width="27.5" height="2.7541" transform="matrix(-1 0 0 1 34.7371 63.344)" fill="#000901"/>
<rect width="11.5789" height="4.13115" transform="matrix(-1 0 0 1 34.7371 66.0981)" fill="#505763"/>
<rect width="11.5789" height="2.7541" transform="matrix(-1 0 0 1 34.7371 70.2295)" fill="#010101"/>
<rect width="11.5789" height="4.13115" transform="matrix(-1 0 0 1 18.8159 66.0981)" fill="#505763"/>
<rect width="11.5789" height="2.7541" transform="matrix(-1 0 0 1 18.8159 70.2295)" fill="#010101"/>
<rect width="5.78947" height="6.88525" transform="matrix(-1 0 0 1 7.23682 56.459)" fill="#EAB293"/>
<rect x="5.78955" y="13.7705" width="23.1579" height="26.1639" fill="#EAB293"/>
<rect x="11.5789" y="39.9346" width="11.5789" height="5.5082" fill="#EAB293"/>
<rect x="2.89478" y="13.7705" width="2.89474" height="23.4098" fill="#F5C6B3"/>
<rect x="28.9478" y="24.7869" width="2.89474" height="12.3934" fill="#EAB293"/>
<rect x="31.8425" y="24.7869" width="2.89474" height="12.3934" fill="#C99585"/>
<path fill-rule="evenodd" clip-rule="evenodd" d="M2.89478 37.1804H5.78951V39.9345H2.89478V37.1804ZM8.68445 45.4427H11.5789V48.1966H14.4736V45.4425H11.5792V39.9345H26.0527V37.1804H11.5792H11.579H8.68445V45.4427ZM23.1579 45.4425H20.2634V42.6884H17.3687V48.1966H20.2632V48.1966H23.1579V45.4425ZM26.0527 39.9345H28.9475V42.6886H26.0527V39.9345ZM31.8421 37.1804H28.9474V39.9345H31.8421V37.1804ZM5.78955 39.9345H8.68429V42.6886H5.78955V39.9345ZM17.3686 42.6884H14.4739V48.1966H17.3686V42.6884ZM26.0527 39.9345H23.158V45.4427H26.0527V39.9345Z" fill="#262627"/>
<rect x="8.68457" y="5.5083" width="14.4737" height="1.37705" fill="#262627"/>
<rect x="14.4739" y="13.7705" width="2.89474" height="1.37705" fill="#262627"/>
<rect x="26.0527" y="13.7705" width="8.68421" height="1.37705" fill="#262627"/>
<rect x="26.0527" y="15.1475" width="8.68421" height="1.37705" fill="#262627"/>
<rect x="28.9478" y="16.5244" width="5.78947" height="1.37705" fill="#262627"/>
<rect x="28.9478" y="17.9019" width="5.78947" height="1.37705" fill="#262627"/>
<rect x="28.9478" y="19.2786" width="5.78947" height="1.37705" fill="#262627"/>
<rect x="28.9478" y="20.656" width="5.78947" height="1.37705" fill="#262627"/>
<rect x="14.4739" y="15.1475" width="2.89474" height="1.37705" fill="#262627"/>
<rect x="31.8425" y="2.75439" width="2.89474" height="5.5082" fill="#262627"/>
<rect x="34.7371" width="2.89474" height="2.7541" fill="#262627"/>
<rect x="8.68457" y="6.88501" width="14.4737" height="1.37705" fill="#262627"/>
<rect x="5.78955" y="8.26245" width="23.1579" height="1.37705" fill="#262627"/>
<rect x="5.78955" y="9.63916" width="23.1579" height="1.37705" fill="#262627"/>
<rect x="2.89478" y="11.0166" width="28.9474" height="1.37705" fill="#262627"/>
<rect x="2.89478" y="12.3936" width="28.9474" height="1.37705" fill="#262627"/>
<rect x="5.78955" y="5.5083" width="2.89474" height="2.7541" fill="#5F595B"/>
<rect x="28.9475" y="2.75439" width="2.89474" height="2.7541" fill="#5F595B"/>
<rect x="31.8425" width="2.89474" height="2.7541" fill="#5F595B"/>
<rect x="2.89478" y="8.26245" width="2.89474" height="2.7541" fill="#5F595B"/>
<rect y="11.0166" width="2.89474" height="2.7541" fill="#5F595B"/>
<rect y="13.7705" width="2.89474" height="2.7541" fill="#5F595B"/>
<rect x="23.158" y="5.5083" width="8.68421" height="2.7541" fill="black"/>
<rect x="28.9475" y="8.26245" width="11.5789" height="2.7541" fill="black"/>
<rect x="34.7371" y="5.5083" width="5.78947" height="2.7541" fill="black"/>
<rect x="31.8425" y="11.0166" width="8.68421" height="2.7541" fill="black"/>
<rect x="34.7371" y="13.7705" width="2.89474" height="13.7705" fill="black"/>
<rect x="34.7371" y="2.75439" width="5.78947" height="2.7541" fill="black"/>
<rect x="17.3684" y="22.0327" width="17.3684" height="2.7541" fill="#770000"/>
<rect y="22.0327" width="14.4737" height="2.7541" fill="#770000"/>
<rect x="17.3684" y="24.7869" width="2.89474" height="2.7541" fill="#770000"/>
<rect x="11.5789" y="24.7869" width="2.89474" height="2.7541" fill="#770000"/>
<rect x="28.9475" y="24.7869" width="2.89474" height="2.7541" fill="#770000"/>
<rect y="24.7869" width="2.89474" height="2.7541" fill="#770000"/>
<rect x="20.2632" y="27.541" width="8.68421" height="2.7541" fill="#770000"/>
<rect x="2.89478" y="27.541" width="8.68421" height="2.7541" fill="#770000"/>
<rect x="20.2632" y="66.0981" width="4.34211" height="17.9016" fill="#BB5F0B"/>
<rect x="44.8687" y="66.0981" width="4.34211" height="17.9016" fill="#BB5F0B"/>
<rect x="5.78955" y="66.0981" width="2.89474" height="13.7705" fill="#571A00"/>
<rect x="17.3684" y="66.0981" width="2.89474" height="17.9016" fill="#571A00"/>
<rect x="41.9739" y="66.0981" width="2.89474" height="17.9016" fill="#571A00"/>
<rect x="28.9475" y="66.0981" width="2.89474" height="13.7705" fill="#571A00"/>
<rect x="8.68457" y="64.7214" width="4.34211" height="15.1475" fill="#8C4504"/>
<rect x="31.8425" y="66.0981" width="4.34211" height="13.7705" fill="#BB5F0B"/>
<rect x="17.3684" y="64.7214" width="34.7368" height="2.7541" fill="#8C4504"/>
<rect x="2.89478" y="61.9673" width="11.5789" height="2.7541" fill="#571A00"/>
<rect x="2.89478" y="64.7214" width="14.4737" height="2.7541" fill="#430000"/>
<rect x="52.1055" y="61.9673" width="2.89474" height="1.37705" fill="#BB5F0B"/>
<rect x="14.4736" y="61.9673" width="37.6316" height="1.37705" fill="#BB5F0B"/>
<rect y="61.9673" width="2.89474" height="1.37705" fill="#571A00"/>
<rect x="52.1055" y="63.344" width="2.89474" height="1.37705" fill="#BB5F0B"/>
<rect x="14.4736" y="63.344" width="37.6316" height="1.37705" fill="#BB5F0B"/>
<rect y="63.344" width="2.89474" height="1.37705" fill="#571A00"/>
</svg>
