<svg width="38" height="61" viewBox="0 0 38 61" fill="none" xmlns="http://www.w3.org/2000/svg">
<rect width="4" height="13" transform="matrix(-1 0 0 1 21 33)" fill="#888C96"/>
<rect width="4" height="13" transform="matrix(-1 0 0 1 9 33)" fill="#888C96"/>
<rect width="4" height="15" transform="matrix(-1 0 0 1 15 31)" fill="white"/>
<rect width="2" height="8" transform="matrix(-1 0 0 1 23 33)" fill="#888C96"/>
<rect width="2" height="6" transform="matrix(-1 0 0 1 3 35)" fill="#888C96"/>
<rect width="2" height="6" transform="matrix(-1 0 0 1 25 35)" fill="#888C96"/>
<rect width="2" height="8" transform="matrix(-1 0 0 1 27 33)" fill="#5C5E69"/>
<rect width="2" height="2" transform="matrix(-1 0 0 1 25 33)" fill="#5C5E69"/>
<rect width="2" height="2" transform="matrix(-1 0 0 1 23 31)" fill="#5C5E69"/>
<rect width="2" height="2" transform="matrix(-1 0 0 1 9 31)" fill="#5C5E69"/>
<rect width="2" height="2" transform="matrix(-1 0 0 1 7 31)" fill="#5C5E69"/>
<rect width="2" height="16" transform="matrix(-1 0 0 1 17 30)" fill="#5C5E69"/>
<rect width="2" height="16" transform="matrix(-1 0 0 1 11 30)" fill="#5C5E69"/>
<rect width="2" height="9" transform="matrix(-1 0 0 1 5 32)" fill="#5C5E69"/>
<rect width="2" height="9" transform="matrix(-1 0 0 1 22 37)" fill="#5C5E69"/>
<rect width="4" height="2" transform="matrix(-1 0 0 1 21 31)" fill="#5C5E69"/>
<rect width="5" height="5" transform="matrix(-1 0 0 1 27 41)" fill="#EAB293"/>
<rect width="19" height="2" transform="matrix(-1 0 0 1 24 46)" fill="#000901"/>
<rect width="8" height="3" transform="matrix(-1 0 0 1 24 48)" fill="#505763"/>
<rect width="8" height="2" transform="matrix(-1 0 0 1 24 51)" fill="#010101"/>
<rect width="8" height="3" transform="matrix(-1 0 0 1 13 48)" fill="#505763"/>
<rect width="8" height="2" transform="matrix(-1 0 0 1 13 51)" fill="#010101"/>
<rect width="4" height="5" transform="matrix(-1 0 0 1 5 41)" fill="#EAB293"/>
<rect x="4" y="10" width="16" height="19" fill="#EAB293"/>
<rect x="8" y="29" width="8" height="4" fill="#EAB293"/>
<rect x="2" y="10" width="2" height="17" fill="#F5C6B3"/>
<rect x="20" y="18" width="2" height="9" fill="#EAB293"/>
<rect x="22" y="18" width="2" height="9" fill="#C99585"/>
<path fill-rule="evenodd" clip-rule="evenodd" d="M2 27H4V29H2V27ZM18 29V27H8H6V29H4V31H6V33H8V35H10H12H14H16V33H18V31H20V29H22V27H20V29H18ZM16 29V33H14V31H12H10V33H8V29H16Z" fill="#262627"/>
<rect x="6" y="4" width="10" height="1" fill="#262627"/>
<rect x="10" y="10" width="2" height="1" fill="#262627"/>
<rect x="18" y="10" width="6" height="1" fill="#262627"/>
<rect x="18" y="11" width="6" height="1" fill="#262627"/>
<rect x="20" y="12" width="4" height="1" fill="#262627"/>
<rect x="20" y="13" width="4" height="1" fill="#262627"/>
<rect x="20" y="14" width="4" height="1" fill="#262627"/>
<rect x="20" y="15" width="4" height="1" fill="#262627"/>
<rect x="10" y="11" width="2" height="1" fill="#262627"/>
<rect x="22" y="2" width="2" height="4" fill="#262627"/>
<rect x="24" width="2" height="2" fill="#262627"/>
<rect x="6" y="5" width="10" height="1" fill="#262627"/>
<rect x="4" y="6" width="16" height="1" fill="#262627"/>
<rect x="4" y="7" width="16" height="1" fill="#262627"/>
<rect x="2" y="8" width="20" height="1" fill="#262627"/>
<rect x="2" y="9" width="20" height="1" fill="#262627"/>
<rect x="4" y="4" width="2" height="2" fill="#5F595B"/>
<rect x="20" y="2" width="2" height="2" fill="#5F595B"/>
<rect x="22" width="2" height="2" fill="#5F595B"/>
<rect x="2" y="6" width="2" height="2" fill="#5F595B"/>
<rect y="8" width="2" height="2" fill="#5F595B"/>
<rect y="10" width="2" height="2" fill="#5F595B"/>
<rect x="16" y="4" width="6" height="2" fill="black"/>
<rect x="20" y="6" width="8" height="2" fill="black"/>
<rect x="24" y="4" width="4" height="2" fill="black"/>
<rect x="22" y="8" width="6" height="2" fill="black"/>
<rect x="24" y="10" width="2" height="10" fill="black"/>
<rect x="24" y="2" width="4" height="2" fill="black"/>
<rect x="12" y="16" width="12" height="2" fill="#770000"/>
<rect y="16" width="10" height="2" fill="#770000"/>
<rect x="12" y="18" width="2" height="2" fill="#770000"/>
<rect x="8" y="18" width="2" height="2" fill="#770000"/>
<rect x="20" y="18" width="2" height="2" fill="#770000"/>
<rect y="18" width="2" height="2" fill="#770000"/>
<rect x="14" y="20" width="6" height="2" fill="#770000"/>
<rect x="2" y="20" width="6" height="2" fill="#770000"/>
<rect x="14" y="48" width="3" height="13" fill="#BB5F0B"/>
<rect x="31" y="48" width="3" height="13" fill="#BB5F0B"/>
<rect x="4" y="48" width="2" height="10" fill="#571A00"/>
<rect x="12" y="48" width="2" height="13" fill="#571A00"/>
<rect x="29" y="48" width="2" height="13" fill="#571A00"/>
<rect x="20" y="48" width="2" height="10" fill="#571A00"/>
<rect x="6" y="47" width="3" height="11" fill="#8C4504"/>
<rect x="22" y="48" width="3" height="10" fill="#BB5F0B"/>
<rect x="12" y="47" width="24" height="2" fill="#8C4504"/>
<rect x="2" y="45" width="8" height="2" fill="#571A00"/>
<rect x="2" y="47" width="10" height="2" fill="#430000"/>
<rect x="36" y="45" width="2" height="1" fill="#BB5F0B"/>
<rect x="10" y="45" width="26" height="1" fill="#BB5F0B"/>
<rect y="45" width="2" height="1" fill="#571A00"/>
<rect x="36" y="46" width="2" height="1" fill="#BB5F0B"/>
<rect x="10" y="46" width="26" height="1" fill="#BB5F0B"/>
<rect y="46" width="2" height="1" fill="#571A00"/>
</svg>
