<svg width="26" height="41" viewBox="0 0 26 41" fill="none" xmlns="http://www.w3.org/2000/svg">
<rect x="4" y="8" width="16" height="20" fill="#F7A26E"/>
<rect x="8" y="28" width="8" height="4" fill="#F7A26E"/>
<rect x="2" y="9" width="2" height="17" fill="#F2AF8F"/>
<rect x="20" y="14" width="2" height="12" fill="#F7A26E"/>
<rect x="22" y="15" width="2" height="9" fill="#D98E69"/>
<rect y="15" width="10" height="2" fill="#262B44"/>
<rect x="12" y="15" width="12" height="2" fill="#262B44"/>
<rect y="17" width="2" height="2" fill="#262B44"/>
<rect x="20" y="17" width="2" height="2" fill="#262B44"/>
<rect x="8" y="17" width="2" height="2" fill="#262B44"/>
<rect x="12" y="17" width="2" height="2" fill="#262B44"/>
<rect x="2" y="19" width="6" height="2" fill="#262B44"/>
<rect x="14" y="19" width="6" height="2" fill="#262B44"/>
<rect x="6" width="12" height="2" fill="#5F595B"/>
<rect x="4" y="2" width="2" height="2" fill="#5F595B"/>
<rect x="18" y="2" width="2" height="2" fill="#5F595B"/>
<rect x="20" y="4" width="2" height="2" fill="#5F595B"/>
<rect x="22" y="6" width="2" height="2" fill="#5F595B"/>
<rect x="24" y="8" width="2" height="2" fill="#5F595B"/>
<rect x="2" y="4" width="2" height="2" fill="#5F595B"/>
<rect y="6" width="2" height="6" fill="#5F595B"/>
<rect x="4" y="8" width="2" height="4" fill="#5F595B"/>
<rect x="2" y="6" width="2" height="4" fill="black"/>
<rect x="4" y="4" width="2" height="4" fill="black"/>
<rect x="6" y="2" width="2" height="10" fill="black"/>
<rect x="10" y="2" width="2" height="8" fill="black"/>
<rect x="12" y="2" width="2" height="6" fill="black"/>
<rect x="14" y="2" width="2" height="6" fill="black"/>
<rect x="16" y="2" width="2" height="6" fill="black"/>
<rect x="18" y="4" width="2" height="6" fill="black"/>
<rect x="22" y="8" width="2" height="7" fill="black"/>
<rect x="24" y="10" width="2" height="10" fill="black"/>
<rect x="20" y="6" width="2" height="8" fill="black"/>
<rect x="8" y="2" width="2" height="10" fill="black"/>
<rect x="6" y="25" width="12" height="2" fill="black"/>
<rect x="2" y="25" width="2" height="2" fill="black"/>
<rect x="6" y="29" width="2" height="2" fill="black"/>
<rect x="4" y="27" width="4" height="2" fill="black"/>
<rect x="2" y="27" width="2" height="2" fill="#555055"/>
<rect x="4" y="29" width="2" height="2" fill="#555055"/>
<rect x="6" y="31" width="2" height="2" fill="#555055"/>
<rect x="8" y="33" width="2" height="2" fill="#555055"/>
<rect x="10" y="31" width="2" height="8" fill="#838383"/>
<rect x="12" y="31" width="2" height="8" fill="#555055"/>
<rect x="4" y="31" width="2" height="2" fill="#262627"/>
<rect x="6" y="33" width="2" height="2" fill="#262627"/>
<rect x="8" y="35" width="2" height="2" fill="#262627"/>
<rect x="4" y="33" width="2" height="2" fill="black"/>
<rect x="6" y="35" width="2" height="2" fill="black"/>
<rect x="8" y="37" width="2" height="2" fill="black"/>
<rect x="10" y="39" width="4" height="2" fill="black"/>
<rect x="14" y="37" width="2" height="2" fill="black"/>
<rect x="18" y="33" width="2" height="2" fill="black"/>
<rect x="18" y="31" width="2" height="2" fill="#262627"/>
<rect x="16" y="33" width="2" height="2" fill="#262627"/>
<rect x="14" y="35" width="2" height="2" fill="#262627"/>
<rect x="8" y="31" width="2" height="2" fill="black"/>
<rect x="10" y="29" width="2" height="2" fill="black"/>
<rect x="12" y="29" width="2" height="2" fill="black"/>
<rect x="14" y="31" width="2" height="2" fill="black"/>
<rect x="16" y="29" width="2" height="2" fill="black"/>
<rect x="16" y="27" width="2" height="2" fill="black"/>
<rect x="18" y="27" width="2" height="2" fill="black"/>
<rect x="14" y="33" width="2" height="2" fill="#555055"/>
<rect x="16" y="31" width="2" height="2" fill="#555055"/>
<rect x="18" y="29" width="2" height="2" fill="#555055"/>
<rect x="20" y="27" width="2" height="2" fill="#555055"/>
<rect x="20" y="25" width="2" height="2" fill="black"/>
<rect x="16" y="35" width="2" height="2" fill="black"/>
</svg>
